<?xml version="1.0" standalone="no"?>
<!DOCTYPE svg PUBLIC "-//W3C//DTD SVG 20010904//EN"
 "http://www.w3.org/TR/2001/REC-SVG-20010904/DTD/svg10.dtd">
<svg version="1.0" xmlns="http://www.w3.org/2000/svg"
 width="1280.000000pt" height="719.000000pt" viewBox="0 0 1280.000000 719.000000"
 preserveAspectRatio="xMidYMid meet">

<g transform="translate(0.000000,719.000000) scale(0.100000,-0.100000)"
fill="#000000" stroke="none">
<path d="M1264 4746 c-11 -8 -128 -76 -259 -151 -132 -76 -243 -142 -247 -149
-4 -6 -8 -91 -8 -188 0 -98 -4 -178 -8 -178 -5 0 -74 38 -154 85 -80 47 -154
85 -163 85 -26 0 -142 -67 -149 -86 -9 -23 -7 -1177 2 -1191 8 -13 269 -163
283 -163 5 0 9 220 9 494 0 307 4 497 10 501 9 6 31 -6 295 -160 83 -48 195
-114 250 -145 55 -32 174 -100 265 -152 l165 -94 0 -194 0 -194 -80 -46 c-44
-25 -99 -57 -122 -69 l-41 -24 -131 73 -131 73 0 231 c0 127 -4 236 -8 242
-14 21 -263 156 -277 150 -13 -5 -15 -62 -15 -399 0 -363 1 -395 18 -409 15
-14 107 -67 418 -245 62 -34 118 -63 126 -63 16 0 513 283 541 307 15 14 17
37 17 195 0 136 3 178 13 178 6 0 39 -16 72 -37 138 -83 227 -133 242 -133 18
0 135 67 145 84 4 6 8 274 8 596 0 322 -4 590 -8 596 -7 12 -195 126 -249 152
-18 9 -36 12 -40 8 -5 -4 -10 -230 -13 -501 l-5 -493 -120 68 c-66 37 -286
165 -490 282 l-370 214 -3 186 -2 186 126 71 c69 39 131 71 138 70 6 0 63 -31
126 -67 l115 -67 3 -229 c3 -249 3 -250 61 -279 14 -8 70 -39 125 -71 54 -31
105 -55 112 -52 12 4 14 75 14 399 0 363 -1 395 -17 409 -10 9 -110 68 -223
133 -113 64 -226 130 -251 146 -50 32 -84 36 -115 15z"/>
<path d="M2706 4304 c-3 -9 -6 -334 -6 -723 0 -537 3 -710 12 -719 8 -8 68
-12 204 -12 166 0 193 2 198 16 3 9 6 139 6 291 0 172 4 273 10 271 10 -3 131
-104 410 -343 294 -252 362 -307 371 -298 5 5 8 326 7 734 l-3 724 -189 3
c-130 2 -193 -1 -202 -9 -11 -9 -14 -65 -14 -290 0 -165 -4 -279 -9 -279 -5 0
-74 55 -153 123 -79 67 -229 194 -333 282 -104 88 -210 179 -237 203 -53 46
-63 50 -72 26z"/>
<path d="M11247 4248 c-133 -277 -264 -548 -412 -853 -54 -110 -126 -260 -161
-332 -35 -73 -68 -133 -72 -133 -4 0 -23 28 -42 63 -19 34 -103 181 -187 326
-84 146 -153 273 -153 283 0 10 71 134 159 276 215 350 213 346 199 360 -9 9
-79 12 -244 12 l-233 0 -24 -32 c-13 -18 -71 -115 -127 -215 -56 -101 -106
-183 -111 -183 -5 0 -9 92 -9 204 0 161 -3 206 -14 215 -9 8 -73 11 -207 9
l-194 -3 0 -695 0 -695 194 -3 c134 -2 198 1 207 9 11 9 14 61 14 260 0 137 3
249 8 249 7 -1 64 -102 217 -384 35 -66 70 -123 77 -128 16 -12 879 1 893 12
6 5 19 32 29 59 l18 51 77 1 c229 2 314 0 321 -7 5 -5 17 -31 28 -59 l20 -50
236 -3 c190 -2 237 0 242 11 2 7 -50 126 -117 263 -67 137 -149 308 -184 379
-34 72 -106 220 -159 330 -54 110 -127 262 -163 338 -37 75 -72 137 -79 137
-7 0 -28 -33 -47 -72z m59 -815 c9 -27 23 -63 31 -82 7 -18 13 -35 13 -37 0
-2 -31 -4 -70 -4 -38 0 -70 2 -70 4 0 16 63 166 70 166 5 0 16 -21 26 -47z"/>
<path d="M7670 4271 c-151 -29 -274 -120 -332 -247 -20 -43 -23 -65 -22 -169
0 -107 3 -126 26 -175 32 -70 107 -153 179 -200 31 -20 106 -62 166 -94 61
-31 121 -68 133 -81 30 -32 29 -73 -1 -98 -47 -38 -178 0 -276 80 -29 24 -59
43 -66 43 -18 0 -207 -265 -207 -289 0 -50 166 -154 306 -192 106 -29 282 -29
374 0 219 69 342 267 309 498 -24 173 -111 264 -363 387 -145 70 -169 90 -164
132 6 58 105 57 203 -1 32 -19 63 -35 70 -35 16 0 215 259 215 280 0 30 -118
99 -240 140 -71 24 -235 35 -310 21z"/>
<path d="M4090 4231 c-13 -26 -14 -1319 0 -1355 l10 -26 433 0 c323 0 436 3
445 12 14 14 17 344 4 365 -6 9 -69 13 -237 15 l-230 3 0 75 0 75 225 3 c164
2 226 6 232 15 12 18 10 275 -2 298 -10 18 -23 19 -235 19 l-225 0 0 65 0 65
198 0 c141 0 201 3 210 12 13 13 18 331 6 362 -5 14 -51 16 -415 16 -393 0
-409 -1 -419 -19z"/>
<path d="M5034 4236 c-5 -14 31 -87 236 -476 48 -91 89 -172 92 -180 5 -13
-81 -188 -187 -385 -106 -196 -164 -316 -159 -330 6 -13 36 -15 233 -13 l226
3 45 107 c25 58 53 127 63 152 11 25 23 46 27 46 4 0 27 -48 49 -107 23 -60
52 -128 64 -153 l23 -45 222 -3 c198 -2 223 -1 229 14 6 16 -11 52 -148 314
-39 74 -100 192 -136 262 l-65 127 72 138 c40 76 113 217 163 313 49 96 94
179 98 184 5 6 9 -68 9 -165 0 -123 4 -179 12 -187 8 -8 57 -12 155 -12 l142
0 3 -484 c2 -266 6 -487 10 -491 4 -4 96 -6 204 -6 144 1 200 5 206 14 4 7 8
227 8 490 l0 477 143 0 c78 0 148 4 155 8 9 7 12 54 10 203 l-3 194 -751 2
c-587 2 -754 0 -762 -10 -5 -6 -26 -55 -46 -107 -21 -52 -42 -107 -48 -122
-19 -50 -19 -50 -91 132 l-42 105 -228 3 c-192 2 -228 0 -233 -12z"/>
<path d="M8395 4238 c-3 -7 -4 -321 -3 -698 l3 -685 435 -3 c400 -2 436 -1
448 15 18 25 17 346 -1 362 -9 7 -93 12 -238 13 l-224 3 -3 73 c-2 39 -2 73 0
74 2 1 107 5 233 8 l230 5 3 149 c2 101 -1 153 -9 162 -9 11 -57 14 -235 14
l-224 0 0 65 0 65 198 0 c108 0 203 4 210 8 9 7 12 52 10 193 l-3 184 -413 3
c-325 2 -414 0 -417 -10z"/>
<path d="M12095 4238 c-3 -7 -4 -321 -3 -698 l3 -685 194 -3 c134 -2 198 1
207 9 19 16 21 1358 2 1377 -17 17 -397 17 -403 0z"/>
</g>
</svg>
